<svg width="96" height="96" viewBox="0 0 96 96" fill="none" xmlns="http://www.w3.org/2000/svg">
<g clip-path="url(#clip0_2307_234)">
<path d="M48.5723 17.8077C42.2433 17.8077 36.0564 19.6845 30.794 23.2007C25.5317 26.7169 21.4301 31.7146 19.0081 37.5619C16.5861 43.4091 15.9524 49.8432 17.1872 56.0506C18.4219 62.258 21.4696 67.9599 25.9449 72.4352C30.4201 76.9105 36.122 79.9582 42.3294 81.1929C48.5368 82.4276 54.9709 81.7939 60.8182 79.3719C66.6654 76.9499 71.6631 72.8484 75.1793 67.586C78.6955 62.3236 80.5723 56.1368 80.5723 49.8078C80.5628 41.3237 77.1883 33.1899 71.1892 27.1908C65.1901 21.1917 57.0563 17.8173 48.5723 17.8077ZM48.5723 79.522C42.6954 79.522 36.9504 77.7793 32.0639 74.5143C27.1774 71.2492 23.3689 66.6085 21.1199 61.1789C18.8709 55.7493 18.2824 49.7748 19.4289 44.0108C20.5755 38.2468 23.4055 32.9522 27.5611 28.7966C31.7167 24.641 37.0113 21.8109 42.7753 20.6644C48.5393 19.5179 54.5139 20.1063 59.9435 22.3553C65.373 24.6043 70.0138 28.4129 73.2788 33.2994C76.5439 38.1859 78.2866 43.9308 78.2866 49.8078C78.2777 57.6857 75.1442 65.2385 69.5736 70.8091C64.003 76.3797 56.4503 79.5131 48.5723 79.522Z" fill="#BC8924"/>
<path d="M66.0558 35.2787L39.0117 61.892L31.1138 53.5912C30.9048 53.3716 30.6172 53.2439 30.3141 53.2364C30.011 53.2289 29.7174 53.342 29.4977 53.551C29.2781 53.76 29.1505 54.0476 29.1429 54.3507C29.1354 54.6538 29.2486 54.9474 29.4575 55.1671L38.1568 64.3099C38.2613 64.4198 38.3867 64.5078 38.5256 64.5687C38.6646 64.6297 38.8142 64.6623 38.9659 64.6648H38.9849C39.2847 64.6649 39.5725 64.547 39.7862 64.3367L67.6584 36.9081C67.7658 36.803 67.8514 36.6777 67.9103 36.5394C67.9692 36.4012 68.0002 36.2527 68.0016 36.1024C68.003 35.9521 67.9748 35.803 67.9185 35.6637C67.8622 35.5243 67.779 35.3974 67.6736 35.2903C67.5683 35.1831 67.4428 35.0978 67.3044 35.0393C67.166 34.9807 67.0174 34.95 66.8671 34.9489C66.7168 34.9478 66.5678 34.9764 66.4286 35.033C66.2893 35.0896 66.1627 35.1731 66.0557 35.2787H66.0558Z" fill="#2D4356"/>
<path d="M86.1271 83.9505H60.7216C68.7645 80.9666 75.5024 75.2502 79.7571 67.8011C84.0118 60.352 85.5124 51.6442 83.9966 43.2007C82.4808 34.7571 78.0449 27.1151 71.4648 21.6111C64.8847 16.1071 56.5792 13.0914 48.0006 13.0914C39.4221 13.0914 31.1165 16.1071 24.5364 21.6111C17.9563 27.1151 13.5205 34.7571 12.0047 43.2007C10.4888 51.6442 11.9895 60.352 16.2441 67.8011C20.4988 75.2502 27.2368 80.9666 35.2796 83.9505H9.87416C9.71158 83.9293 9.54633 83.943 9.38946 83.9907C9.23258 84.0384 9.0877 84.1191 8.96447 84.2272C8.84125 84.3354 8.74252 84.4686 8.67489 84.618C8.60725 84.7674 8.57227 84.9294 8.57227 85.0934C8.57227 85.2574 8.60725 85.4195 8.67489 85.5688C8.74252 85.7182 8.84125 85.8514 8.96447 85.9596C9.0877 86.0678 9.23258 86.1484 9.38946 86.1961C9.54633 86.2438 9.71158 86.2575 9.87416 86.2363H86.1271C86.2897 86.2575 86.4549 86.2438 86.6118 86.1961C86.7687 86.1484 86.9136 86.0678 87.0368 85.9596C87.16 85.8514 87.2587 85.7182 87.3264 85.5688C87.394 85.4195 87.429 85.2574 87.429 85.0934C87.429 84.9294 87.394 84.7674 87.3264 84.618C87.2587 84.4686 87.16 84.3354 87.0368 84.2272C86.9136 84.1191 86.7687 84.0384 86.6118 83.9907C86.4549 83.943 86.2897 83.9293 86.1271 83.9505ZM13.7149 49.6648C13.7149 42.8838 15.7257 36.255 19.4931 30.6167C23.2605 24.9784 28.6152 20.584 34.8801 17.989C41.1449 15.394 48.0387 14.715 54.6894 16.0379C61.3402 17.3608 67.4493 20.6262 72.2443 25.4212C77.0392 30.2161 80.3046 36.3252 81.6275 42.976C82.9505 49.6268 82.2715 56.5205 79.6765 62.7854C77.0815 69.0503 72.687 74.405 67.0487 78.1724C61.4105 81.9397 54.7817 83.9505 48.0006 83.9505C38.9107 83.9402 30.1959 80.3247 23.7683 73.8971C17.3408 67.4695 13.7252 58.7548 13.7149 49.6648ZM50.5721 10.0934C50.9111 10.0934 51.2425 9.99285 51.5245 9.80448C51.8064 9.61612 52.0261 9.34838 52.1558 9.03514C52.2856 8.72189 52.3195 8.37721 52.2534 8.04467C52.1873 7.71213 52.024 7.40667 51.7842 7.16693C51.5445 6.92718 51.239 6.76391 50.9065 6.69776C50.574 6.63162 50.2293 6.66556 49.916 6.79531C49.6028 6.92507 49.335 7.14479 49.1467 7.4267C48.9583 7.70862 48.8578 8.04006 48.8578 8.37911C48.8583 8.83361 49.0391 9.26934 49.3604 9.59072C49.6818 9.9121 50.1176 10.0929 50.5721 10.0934ZM50.5721 7.52197C50.7416 7.52197 50.9073 7.57224 51.0483 7.66642C51.1892 7.7606 51.2991 7.89447 51.3639 8.05109C51.4288 8.20772 51.4458 8.38006 51.4127 8.54633C51.3797 8.7126 51.298 8.86533 51.1781 8.9852C51.0583 9.10507 50.9055 9.18671 50.7393 9.21978C50.573 9.25286 50.4007 9.23588 50.244 9.17101C50.0874 9.10613 49.9535 8.99627 49.8594 8.85531C49.7652 8.71436 49.7149 8.54864 49.7149 8.37911C49.7151 8.15185 49.8055 7.93396 49.9662 7.77326C50.1269 7.61257 50.3448 7.52219 50.5721 7.52197ZM90.4605 38.8077C90.2344 38.8077 90.0135 38.8747 89.8255 39.0003C89.6376 39.1259 89.4911 39.3044 89.4046 39.5132C89.3181 39.722 89.2955 39.9518 89.3396 40.1735C89.3837 40.3952 89.4925 40.5988 89.6523 40.7587C89.8122 40.9185 90.0158 41.0273 90.2375 41.0714C90.4592 41.1155 90.689 41.0929 90.8978 41.0064C91.1066 40.9199 91.2851 40.7734 91.4107 40.5855C91.5363 40.3975 91.6033 40.1766 91.6033 39.9505C91.603 39.6475 91.4825 39.3571 91.2682 39.1428C91.0539 38.9286 90.7635 38.808 90.4605 38.8077ZM90.4605 40.522C90.3474 40.522 90.237 40.4885 90.143 40.4257C90.049 40.3629 89.9758 40.2736 89.9325 40.1692C89.8893 40.0648 89.878 39.9499 89.9 39.8391C89.9221 39.7282 89.9765 39.6264 90.0564 39.5465C90.1363 39.4666 90.2381 39.4121 90.349 39.3901C90.4598 39.368 90.5747 39.3794 90.6791 39.4226C90.7835 39.4659 90.8728 39.5391 90.9356 39.6331C90.9984 39.727 91.0319 39.8375 91.0319 39.9505C91.0317 40.102 90.9715 40.2473 90.8643 40.3544C90.7572 40.4616 90.612 40.5218 90.4605 40.522ZM74.2863 2.04578C74.0603 2.04578 73.8393 2.1128 73.6514 2.23838C73.4635 2.36396 73.317 2.54245 73.2305 2.75128C73.144 2.96011 73.1213 3.1899 73.1654 3.41159C73.2095 3.63329 73.3184 3.83692 73.4782 3.99676C73.638 4.15659 73.8417 4.26543 74.0634 4.30953C74.2851 4.35363 74.5149 4.331 74.7237 4.2445C74.9325 4.158 75.111 4.01151 75.2366 3.82357C75.3622 3.63563 75.4292 3.41467 75.4292 3.18863C75.4288 2.88564 75.3083 2.59515 75.0941 2.38089C74.8798 2.16664 74.5893 2.04612 74.2863 2.04578ZM74.2863 3.76006C74.1733 3.76006 74.0628 3.72655 73.9689 3.66376C73.8749 3.60097 73.8017 3.51172 73.7584 3.40731C73.7152 3.3029 73.7038 3.188 73.7259 3.07715C73.7479 2.96631 73.8024 2.86449 73.8823 2.78457C73.9622 2.70466 74.064 2.65023 74.1749 2.62818C74.2857 2.60614 74.4006 2.61745 74.505 2.6607C74.6094 2.70395 74.6987 2.77719 74.7615 2.87116C74.8242 2.96514 74.8578 3.07562 74.8578 3.18863C74.8576 3.34014 74.7974 3.4854 74.6902 3.59253C74.5831 3.69966 74.4378 3.75991 74.2863 3.76006ZM92.1911 8.71245C91.9651 8.71245 91.7441 8.77947 91.5562 8.90505C91.3682 9.03063 91.2217 9.20912 91.1352 9.41795C91.0487 9.62678 91.0261 9.85657 91.0702 10.0783C91.1143 10.3 91.2231 10.5036 91.383 10.6634C91.5428 10.8233 91.7464 10.9321 91.9681 10.9762C92.1898 11.0203 92.4196 10.9977 92.6284 10.9112C92.8373 10.8247 93.0158 10.6782 93.1413 10.4902C93.2669 10.3023 93.334 10.0813 93.334 9.8553C93.3336 9.5523 93.2131 9.26182 92.9988 9.04756C92.7846 8.83331 92.4941 8.71279 92.1911 8.71245ZM92.1911 10.4267C92.0781 10.4267 91.9676 10.3932 91.8736 10.3304C91.7797 10.2676 91.7064 10.1784 91.6632 10.074C91.6199 9.96956 91.6086 9.85467 91.6306 9.74382C91.6527 9.63298 91.7071 9.53116 91.787 9.45124C91.867 9.37133 91.9688 9.3169 92.0796 9.29485C92.1905 9.27281 92.3054 9.28412 92.4098 9.32737C92.5142 9.37062 92.6034 9.44386 92.6662 9.53783C92.729 9.6318 92.7625 9.74229 92.7625 9.8553C92.7624 10.0068 92.7021 10.1521 92.595 10.2592C92.4879 10.3663 92.3426 10.4266 92.1911 10.4267ZM17.3176 17.4743C17.3176 17.2483 17.2506 17.0274 17.125 16.8394C16.9994 16.6515 16.8209 16.505 16.6121 16.4185C16.4033 16.332 16.1735 16.3094 15.9518 16.3535C15.7301 16.3975 15.5265 16.5064 15.3666 16.6662C15.2068 16.8261 15.0979 17.0297 15.0538 17.2514C15.0098 17.4731 15.0324 17.7029 15.1189 17.9117C15.2054 18.1205 15.3519 18.299 15.5398 18.4246C15.7278 18.5502 15.9487 18.6172 16.1747 18.6172C16.4777 18.6169 16.7682 18.4963 16.9825 18.2821C17.1967 18.0678 17.3173 17.7773 17.3176 17.4743ZM15.6033 17.4743C15.6033 17.3613 15.6368 17.2509 15.6996 17.1569C15.7624 17.0629 15.8517 16.9897 15.9561 16.9464C16.0605 16.9032 16.1754 16.8919 16.2862 16.9139C16.3971 16.936 16.4989 16.9904 16.5788 17.0703C16.6587 17.1502 16.7131 17.252 16.7352 17.3629C16.7572 17.4737 16.7459 17.5886 16.7027 17.693C16.6594 17.7974 16.5862 17.8867 16.4922 17.9495C16.3982 18.0123 16.2878 18.0458 16.1747 18.0458C16.0232 18.0456 15.878 17.9854 15.7709 17.8782C15.6637 17.7711 15.6035 17.6259 15.6033 17.4743Z" fill="#2D4356"/>
<path d="M6.22106 38.8143L7.07077 37.6966L6.5342 37.3926L5.98848 38.644H5.97077L5.41648 37.4017L4.87077 37.7143L5.71134 38.8057V38.8234L4.39648 38.6532V39.2612L5.71991 39.0914V39.1092L4.87077 40.2L5.37991 40.5223L5.96163 39.2612H5.97934L6.51591 40.5132L7.07934 40.1914L6.22106 39.1183V39.1L7.57077 39.2612V38.6532L6.22106 38.832V38.8143Z" fill="#BC8924"/>
<path d="M6.94979 3.56462L6.46064 4.19262L6.75379 4.37834L7.08864 3.65205H7.09893L7.40807 4.37319L7.73264 4.18748L7.23836 3.56976V3.55948L8.0155 3.65205V3.30176L7.23836 3.40519V3.39491L7.7275 2.75091L7.41836 2.57605L7.10464 3.29662H7.09379L6.77493 2.58119L6.46064 2.76119L6.94464 3.38976V3.40005L6.1875 3.30176V3.65205L6.94979 3.55434V3.56462Z" fill="#BC8924"/>
<path d="M37.3168 3.59657V3L35.9928 3.17543V3.15771L36.826 2.06171L36.2997 1.76343L35.7648 2.99143H35.7471L35.2037 1.772L34.6683 2.07943L35.4928 3.14914V3.16686L34.2031 3V3.59657L35.5014 3.42971V3.44743L34.6683 4.51714L35.1683 4.83314L35.7386 3.59657H35.7557L36.282 4.824L36.8346 4.50857L35.9928 3.456V3.43828L37.3168 3.59657Z" fill="#BC8924"/>
<path d="M79.3481 20.4795L80.067 19.5338L79.6127 19.2766L79.1516 20.3355H79.1361L78.6676 19.284L78.2053 19.5486L78.9167 20.472V20.4869L77.8047 20.3429V20.8572L78.9241 20.7138V20.7292L78.2053 21.6515L78.6367 21.924L79.1287 20.8572H79.1435L79.5973 21.9166L80.0744 21.644L79.3481 20.7366V20.7212L80.4898 20.8572V20.3429L79.3481 20.4943V20.4795Z" fill="#BC8924"/>
<path d="M1.14286 86.2365C1.77404 86.2365 2.28571 85.7248 2.28571 85.0937C2.28571 84.4625 1.77404 83.9508 1.14286 83.9508C0.511675 83.9508 0 84.4625 0 85.0937C0 85.7248 0.511675 86.2365 1.14286 86.2365Z" fill="#2D4356"/>
<path d="M6.28488 83.9506H4.57059C4.26749 83.9506 3.9768 84.071 3.76247 84.2853C3.54814 84.4996 3.42773 84.7903 3.42773 85.0934C3.42773 85.3965 3.54814 85.6872 3.76247 85.9015C3.9768 86.1159 4.26749 86.2363 4.57059 86.2363H6.28488C6.58798 86.2363 6.87867 86.1159 7.093 85.9015C7.30733 85.6872 7.42773 85.3965 7.42773 85.0934C7.42773 84.7903 7.30733 84.4996 7.093 84.2853C6.87867 84.071 6.58798 83.9506 6.28488 83.9506ZM91.4277 83.9506H89.7134C89.4103 83.9506 89.1196 84.071 88.9053 84.2853C88.691 84.4996 88.5706 84.7903 88.5706 85.0934C88.5706 85.3965 88.691 85.6872 88.9053 85.9015C89.1196 86.1159 89.4103 86.2363 89.7134 86.2363H91.4277C91.7308 86.2363 92.0215 86.1159 92.2358 85.9015C92.4502 85.6872 92.5706 85.3965 92.5706 85.0934C92.5706 84.7903 92.4502 84.4996 92.2358 84.2853C92.0215 84.071 91.7308 83.9506 91.4277 83.9506Z" fill="#2D4356"/>
<path d="M94.8577 86.2365C95.4889 86.2365 96.0006 85.7248 96.0006 85.0937C96.0006 84.4625 95.4889 83.9508 94.8577 83.9508C94.2265 83.9508 93.7148 84.4625 93.7148 85.0937C93.7148 85.7248 94.2265 86.2365 94.8577 86.2365Z" fill="#2D4356"/>
<path d="M67.5157 88.522H62.7684C62.4811 88.545 62.213 88.6754 62.0175 88.8872C61.822 89.099 61.7134 89.3766 61.7134 89.6648C61.7134 89.9531 61.822 90.2307 62.0175 90.4425C62.213 90.6543 62.4811 90.7847 62.7684 90.8077H67.5157C67.803 90.7847 68.0711 90.6543 68.2666 90.4425C68.4621 90.2307 68.5706 89.9531 68.5706 89.6648C68.5706 89.3766 68.4621 89.099 68.2666 88.8872C68.0711 88.6754 67.803 88.545 67.5157 88.522ZM33.23 88.522H28.4827C28.1954 88.545 27.9273 88.6754 27.7318 88.8872C27.5363 89.099 27.4277 89.3766 27.4277 89.6648C27.4277 89.9531 27.5363 90.2307 27.7318 90.4425C27.9273 90.6543 28.1954 90.7847 28.4827 90.8077H33.23C33.5173 90.7847 33.7854 90.6543 33.9809 90.4425C34.1764 90.2307 34.2849 89.9531 34.2849 89.6648C34.2849 89.3766 34.1764 89.099 33.9809 88.8872C33.7854 88.6754 33.5173 88.545 33.23 88.522ZM59.4277 88.522H36.5706C36.2675 88.522 35.9768 88.6424 35.7625 88.8567C35.5482 89.071 35.4277 89.3617 35.4277 89.6648C35.4277 89.9679 35.5482 90.2586 35.7625 90.473C35.9768 90.6873 36.2675 90.8077 36.5706 90.8077H45.6792V91.9505H41.142C40.8389 91.9505 40.5482 92.071 40.3339 92.2853C40.1196 92.4996 39.9992 92.7903 39.9992 93.0934C39.9992 93.3965 40.1196 93.6872 40.3339 93.9015C40.5482 94.1159 40.8389 94.2363 41.142 94.2363H55.4277C55.7309 94.2363 56.0215 94.1159 56.2359 93.9015C56.4502 93.6872 56.5706 93.3965 56.5706 93.0934C56.5706 92.7903 56.4502 92.4996 56.2359 92.2853C56.0215 92.071 55.7309 91.9505 55.4277 91.9505H50.3192V90.8077H59.4277C59.7309 90.8077 60.0215 90.6873 60.2359 90.473C60.4502 90.2586 60.5706 89.9679 60.5706 89.6648C60.5706 89.3617 60.4502 89.071 60.2359 88.8567C60.0215 88.6424 59.7309 88.522 59.4277 88.522Z" fill="#BC8924"/>
</g>
<defs>
<clipPath id="clip0_2307_234">
<rect width="96" height="96" fill="white"/>
</clipPath>
</defs>
</svg>
