<svg width="40" height="40" viewBox="0 0 40 40" fill="none" xmlns="http://www.w3.org/2000/svg">
<circle cx="20" cy="20" r="20" fill="#BC8924" fill-opacity="0.2"/>
<path d="M22.8891 13.3335C25.1487 13.3335 26.6666 14.9189 26.6666 17.278V22.7223C26.6666 25.0814 25.1487 26.6668 22.8885 26.6668H17.1107C14.8512 26.6668 13.3333 25.0814 13.3333 22.7223V17.278C13.3333 14.9189 14.8512 13.3335 17.1107 13.3335H22.8891ZM23.6243 20.3669C22.9097 19.921 22.358 20.5471 22.2091 20.7473C22.0657 20.9407 21.9423 21.1539 21.8123 21.3672C21.4945 21.8935 21.1305 22.5003 20.5003 22.8533C19.5846 23.3603 18.8894 22.8932 18.3893 22.5533C18.2016 22.4267 18.0192 22.307 17.8376 22.2272C17.3897 22.0339 16.9868 22.254 16.3889 23.0136C16.0751 23.4106 15.7641 23.8041 15.449 24.1962C15.2606 24.4308 15.3055 24.7927 15.5596 24.9496C15.9652 25.1993 16.4599 25.3335 17.019 25.3335H22.6375C22.9546 25.3335 23.2724 25.2902 23.5754 25.1911C24.2578 24.9682 24.7995 24.4577 25.0824 23.7834C25.3211 23.2165 25.437 22.5285 25.2138 21.9561C25.1394 21.7662 25.0281 21.5894 24.8719 21.4339C24.4623 21.0273 24.0795 20.6476 23.6243 20.3669ZM17.6658 16.0002C16.7467 16.0002 15.9999 16.748 15.9999 17.6668C15.9999 18.5857 16.7467 19.3335 17.6658 19.3335C18.5843 19.3335 19.3317 18.5857 19.3317 17.6668C19.3317 16.748 18.5843 16.0002 17.6658 16.0002Z" fill="#BC8924"/>
</svg>
